<mxfile host="app.diagrams.net" modified="2023-04-06T13:21:19.796Z" agent="Mozilla/5.0 (Windows NT 10.0; Win64; x64) AppleWebKit/537.36 (KHTML, like Gecko) Chrome/98.0.4758.139 Safari/537.36" etag="FSFn7WPW0Z_nUEgFG3uX" version="21.1.4" type="github">
  <diagram name="Page-1" id="2YBvvXClWsGukQMizWep">
    <mxGraphModel dx="1050" dy="543" grid="1" gridSize="10" guides="1" tooltips="1" connect="1" arrows="1" fold="1" page="1" pageScale="1" pageWidth="850" pageHeight="1100" math="0" shadow="0">
      <root>
        <mxCell id="0" />
        <mxCell id="1" parent="0" />
        <mxCell id="klSjFWiTQc7UwG4eAngi-1" value="" style="rounded=0;whiteSpace=wrap;html=1;" vertex="1" parent="1">
          <mxGeometry x="130" y="50" width="460" height="520" as="geometry" />
        </mxCell>
        <mxCell id="klSjFWiTQc7UwG4eAngi-2" value="" style="rounded=1;whiteSpace=wrap;html=1;" vertex="1" parent="1">
          <mxGeometry x="170" y="80" width="390" height="100" as="geometry" />
        </mxCell>
        <mxCell id="klSjFWiTQc7UwG4eAngi-3" value="" style="rounded=1;whiteSpace=wrap;html=1;" vertex="1" parent="1">
          <mxGeometry x="170" y="200" width="390" height="100" as="geometry" />
        </mxCell>
        <mxCell id="klSjFWiTQc7UwG4eAngi-4" value="" style="rounded=1;whiteSpace=wrap;html=1;" vertex="1" parent="1">
          <mxGeometry x="170" y="320" width="390" height="100" as="geometry" />
        </mxCell>
        <mxCell id="klSjFWiTQc7UwG4eAngi-5" value="" style="rounded=1;whiteSpace=wrap;html=1;" vertex="1" parent="1">
          <mxGeometry x="165" y="440" width="390" height="100" as="geometry" />
        </mxCell>
        <mxCell id="klSjFWiTQc7UwG4eAngi-7" value="&lt;font style=&quot;font-size: 13px;&quot;&gt;数据展示层&lt;/font&gt;" style="text;html=1;strokeColor=none;fillColor=none;align=center;verticalAlign=middle;whiteSpace=wrap;rounded=0;" vertex="1" parent="1">
          <mxGeometry x="180" y="90" width="70" height="30" as="geometry" />
        </mxCell>
        <mxCell id="klSjFWiTQc7UwG4eAngi-8" value="&lt;font style=&quot;font-size: 13px;&quot;&gt;数据分析层&lt;/font&gt;" style="text;html=1;strokeColor=none;fillColor=none;align=center;verticalAlign=middle;whiteSpace=wrap;rounded=0;" vertex="1" parent="1">
          <mxGeometry x="182.5" y="210" width="67.5" height="30" as="geometry" />
        </mxCell>
        <mxCell id="klSjFWiTQc7UwG4eAngi-9" value="&lt;font style=&quot;font-size: 13px;&quot;&gt;数据分析层&lt;/font&gt;" style="text;html=1;strokeColor=none;fillColor=none;align=center;verticalAlign=middle;whiteSpace=wrap;rounded=0;" vertex="1" parent="1">
          <mxGeometry x="182.5" y="330" width="67.5" height="30" as="geometry" />
        </mxCell>
        <mxCell id="klSjFWiTQc7UwG4eAngi-10" value="&lt;font style=&quot;font-size: 13px;&quot;&gt;数据分析层&lt;/font&gt;" style="text;html=1;strokeColor=none;fillColor=none;align=center;verticalAlign=middle;whiteSpace=wrap;rounded=0;" vertex="1" parent="1">
          <mxGeometry x="182.5" y="450" width="67.5" height="30" as="geometry" />
        </mxCell>
        <mxCell id="klSjFWiTQc7UwG4eAngi-11" value="&lt;font style=&quot;font-size: 15px;&quot;&gt;系统总体架构&lt;/font&gt;" style="text;html=1;strokeColor=none;fillColor=none;align=center;verticalAlign=middle;whiteSpace=wrap;rounded=0;" vertex="1" parent="1">
          <mxGeometry x="130" y="50" width="110" height="30" as="geometry" />
        </mxCell>
        <mxCell id="klSjFWiTQc7UwG4eAngi-12" value="Vue+Flask框架" style="ellipse;whiteSpace=wrap;html=1;" vertex="1" parent="1">
          <mxGeometry x="320" y="90" width="120" height="80" as="geometry" />
        </mxCell>
        <mxCell id="klSjFWiTQc7UwG4eAngi-13" value="意见领袖识别" style="ellipse;whiteSpace=wrap;html=1;" vertex="1" parent="1">
          <mxGeometry x="320" y="210" width="120" height="80" as="geometry" />
        </mxCell>
        <mxCell id="klSjFWiTQc7UwG4eAngi-14" value="数据预处理" style="ellipse;whiteSpace=wrap;html=1;" vertex="1" parent="1">
          <mxGeometry x="240" y="340" width="100" height="60" as="geometry" />
        </mxCell>
        <mxCell id="klSjFWiTQc7UwG4eAngi-15" value="MongoDB数据库" style="ellipse;whiteSpace=wrap;html=1;" vertex="1" parent="1">
          <mxGeometry x="430" y="340" width="90" height="60" as="geometry" />
        </mxCell>
        <mxCell id="klSjFWiTQc7UwG4eAngi-17" value="" style="shape=flexArrow;endArrow=classic;html=1;rounded=0;entryX=0;entryY=0.5;entryDx=0;entryDy=0;" edge="1" parent="1" target="klSjFWiTQc7UwG4eAngi-15">
          <mxGeometry width="50" height="50" relative="1" as="geometry">
            <mxPoint x="340" y="370" as="sourcePoint" />
            <mxPoint x="390" y="320" as="targetPoint" />
          </mxGeometry>
        </mxCell>
        <mxCell id="klSjFWiTQc7UwG4eAngi-18" value="json" style="text;html=1;strokeColor=none;fillColor=none;align=center;verticalAlign=middle;whiteSpace=wrap;rounded=0;" vertex="1" parent="1">
          <mxGeometry x="350" y="340" width="60" height="30" as="geometry" />
        </mxCell>
        <mxCell id="klSjFWiTQc7UwG4eAngi-19" value="分布式爬虫" style="ellipse;whiteSpace=wrap;html=1;" vertex="1" parent="1">
          <mxGeometry x="240" y="462.5" width="95" height="55" as="geometry" />
        </mxCell>
        <mxCell id="klSjFWiTQc7UwG4eAngi-20" value="" style="shape=flexArrow;endArrow=classic;html=1;rounded=0;" edge="1" parent="1" target="klSjFWiTQc7UwG4eAngi-21">
          <mxGeometry width="50" height="50" relative="1" as="geometry">
            <mxPoint x="335" y="490" as="sourcePoint" />
            <mxPoint x="385" y="440" as="targetPoint" />
          </mxGeometry>
        </mxCell>
        <mxCell id="klSjFWiTQc7UwG4eAngi-21" value="Weibo" style="ellipse;whiteSpace=wrap;html=1;" vertex="1" parent="1">
          <mxGeometry x="427.5" y="460" width="95" height="60" as="geometry" />
        </mxCell>
        <mxCell id="klSjFWiTQc7UwG4eAngi-22" value="API" style="text;html=1;strokeColor=none;fillColor=none;align=center;verticalAlign=middle;whiteSpace=wrap;rounded=0;" vertex="1" parent="1">
          <mxGeometry x="350" y="460" width="60" height="30" as="geometry" />
        </mxCell>
      </root>
    </mxGraphModel>
  </diagram>
</mxfile>
